solid 
facet normal -0.52363217 0.088442855 0.8473413
 outer loop
  vertex -0.005096718 0.33449918 0.26311144
  vertex -0.0049301735 0.33548522 0.26311144
  vertex -0.3989756 0.40203565 0.012656555
 endloop
endfacet
facet normal -0.5243747 0.08406243 0.84732795
 outer loop
  vertex -0.005096718 0.33449918 0.26311144
  vertex -0.3989756 0.40203565 0.012656555
  vertex -0.39902008 0.40103918 0.012727896
 endloop
endfacet
facet normal -0.41406468 0.083370835 0.90642136
 outer loop
  vertex -0.39902008 0.40103918 0.012727896
  vertex -0.3989756 0.40203565 0.012656555
  vertex -0.4213065 0.39880556 0.002752624
 endloop
endfacet
facet normal -0.4131233 0.06552011 0.9083151
 outer loop
  vertex -0.39902008 0.40103918 0.012727896
  vertex -0.4213065 0.39880556 0.002752624
  vertex -0.4209237 0.39791304 0.0029911026
 endloop
endfacet
facet normal -0.17198607 0.18478262 0.96761364
 outer loop
  vertex -0.4209237 0.39791304 0.0029911026
  vertex -0.4213065 0.39880556 0.002752624
  vertex -0.4511028 0.37118095 0.0027319526
 endloop
endfacet
facet normal -0.19032133 0.20555632 0.9599606
 outer loop
  vertex -0.4209237 0.39791304 0.0029911026
  vertex -0.4511028 0.37118095 0.0027319526
  vertex -0.45041698 0.37050915 0.0030117745
 endloop
endfacet
facet normal -0.20920773 0.18627797 0.95996493
 outer loop
  vertex -0.45041698 0.37050915 0.0030117745
  vertex -0.4511028 0.37118095 0.0027319526
  vertex -0.5462866 0.2642806 0.0027319526
 endloop
endfacet
facet normal -0.20949857 0.18654075 0.95985043
 outer loop
  vertex -0.45041698 0.37050915 0.0030117745
  vertex -0.5462866 0.2642806 0.0027319526
  vertex -0.5455251 0.26369599 0.0030117745
 endloop
endfacet
facet normal -0.23433195 0.15419257 0.95985055
 outer loop
  vertex -0.5455251 0.26369599 0.0030117745
  vertex -0.5462866 0.2642806 0.0027319526
  vertex -0.68882215 0.047664188 0.0027319526
 endloop
endfacet
facet normal -0.2337628 0.15381478 0.96005
 outer loop
  vertex -0.5455251 0.26369599 0.0030117745
  vertex -0.68882215 0.047664188 0.0027319526
  vertex -0.6880208 0.04713548 0.0030117745
 endloop
endfacet
facet normal -0.23338604 0.15438575 0.9600499
 outer loop
  vertex -0.6880208 0.04713548 0.0030117745
  vertex -0.68882215 0.047664188 0.0027319526
  vertex -0.9619618 -0.36524302 0.0027319526
 endloop
endfacet
facet normal -0.2354095 0.1557304 0.9593386
 outer loop
  vertex -0.6880208 0.04713548 0.0030117745
  vertex -0.9619618 -0.36524302 0.0027319526
  vertex -0.96109635 -0.36565852 0.0030117745
 endloop
endfacet
facet normal -0.26964048 0.08437546 0.95925736
 outer loop
  vertex -0.96109635 -0.36565852 0.0030117745
  vertex -0.9619618 -0.36524302 0.0027319526
  vertex -0.96758753 -0.38322127 0.0027319526
 endloop
endfacet
facet normal -0.36955425 0.121910274 0.92117727
 outer loop
  vertex -0.96109635 -0.36565852 0.0030117745
  vertex -0.96758753 -0.38322127 0.0027319526
  vertex -0.9667408 -0.38276887 0.0030117745
 endloop
endfacet
facet normal -0.11011533 -0.36557293 0.9242462
 outer loop
  vertex -0.9667408 -0.38276887 0.0030117745
  vertex -0.96758753 -0.38322127 0.0027319526
  vertex -0.94859666 -0.3888049 0.0027860047
 endloop
endfacet
facet normal -0.044439472 -0.17040253 0.98437196
 outer loop
  vertex -0.9667408 -0.38276887 0.0030117745
  vertex -0.94859666 -0.3888049 0.0027860047
  vertex -0.9485691 -0.38782012 0.0029577224
 endloop
endfacet
facet normal -0.3446111 -0.151896 0.9263751
 outer loop
  vertex -0.9485691 -0.38782012 0.0029577224
  vertex -0.94859666 -0.3888049 0.0027860047
  vertex -0.6984037 -0.345531 0.1029532
 endloop
endfacet
facet normal -0.34105194 -0.16903965 0.9247211
 outer loop
  vertex -0.9485691 -0.38782012 0.0029577224
  vertex -0.6984037 -0.345531 0.1029532
  vertex -0.6986191 -0.34455943 0.10305136
 endloop
endfacet
facet normal -0.36633936 -0.17357811 0.91414773
 outer loop
  vertex -0.6986191 -0.34455943 0.10305136
  vertex -0.6984037 -0.345531 0.1029532
  vertex -0.009565013 -0.21732032 0.40334588
 endloop
endfacet
facet normal -0.36632064 -0.17366017 0.9141397
 outer loop
  vertex -0.6986191 -0.34455943 0.10305136
  vertex -0.009565013 -0.21732032 0.40334588
  vertex -0.009787179 -0.21634999 0.4034412
 endloop
endfacet
facet normal 0 -0 1
 outer loop
  vertex -0.5641966 -0.31211108 0.0028718635
  vertex -0.5650059 -0.31269845 0.0028718635
  vertex -0.3010695 -0.6763576 0.0028718635
 endloop
endfacet
facet normal 0 0 1
 outer loop
  vertex -0.5641966 -0.31211108 0.0028718635
  vertex -0.3010695 -0.6763576 0.0028718635
  vertex -0.3002602 -0.6757703 0.0028718635
 endloop
endfacet
facet normal 1.5885223e-07 -2.1888528e-07 1
 outer loop
  vertex -0.3002602 -0.6757703 0.0028718635
  vertex -0.3010695 -0.6763576 0.0028718635
  vertex -0.037107706 -1.040049 0.002871742
 endloop
endfacet
facet normal -0.00019755804 -0.00014304825 0.99999994
 outer loop
  vertex -0.3002602 -0.6757703 0.0028718635
  vertex -0.037107706 -1.040049 0.002871742
  vertex -0.036349118 -1.0393974 0.002871985
 endloop
endfacet
facet normal 0.012034549 -0.014383565 0.9998241
 outer loop
  vertex -0.036349118 -1.0393974 0.002871985
  vertex -0.037107706 -1.040049 0.002871742
  vertex -0.023632066 -1.0533392 0.002518345
 endloop
endfacet
facet normal -0.17927235 -0.1880172 0.96566606
 outer loop
  vertex -0.036349118 -1.0393974 0.002871985
  vertex -0.023632066 -1.0533392 0.002518345
  vertex -0.022951225 -1.0526544 0.0027780838
 endloop
endfacet
facet normal -0.17268406 -0.19453274 0.9655761
 outer loop
  vertex -0.022951225 -1.0526544 0.0027780838
  vertex -0.023632066 -1.0533392 0.002518345
  vertex -0.009731727 -1.06674 0.0023044562
 endloop
endfacet
facet normal -0.29693776 -0.30905852 0.9034992
 outer loop
  vertex -0.022951225 -1.0526544 0.0027780838
  vertex -0.009731727 -1.06674 0.0023044562
  vertex -0.009978029 -1.0658011 0.0025446736
 endloop
endfacet
facet normal -0.55730325 -0.3400071 0.75750136
 outer loop
  vertex -0.009978029 -1.0658011 0.0025446736
  vertex -0.009731727 -1.06674 0.0023044562
  vertex -0.0056533543 -1.0527146 0.011600337
 endloop
endfacet
facet normal -0.26624653 -0.48744598 0.83157027
 outer loop
  vertex -0.009978029 -1.0658011 0.0025446736
  vertex -0.0056533543 -1.0527146 0.011600337
  vertex -0.0065919473 -1.0523871 0.011491778
 endloop
endfacet
facet normal -0.26325443 -0.47645265 0.83886236
 outer loop
  vertex -0.0065919473 -1.0523871 0.011491778
  vertex -0.0056533543 -1.0527146 0.011600337
  vertex -0.0018936584 -1.0388796 0.020638121
 endloop
endfacet
facet normal -0.005589604 -0.5593422 0.828918
 outer loop
  vertex -0.0065919473 -1.0523871 0.011491778
  vertex -0.0018936584 -1.0388796 0.020638121
  vertex -0.0028871885 -1.0387825 0.02069698
 endloop
endfacet
facet normal 0.030644758 -0.26970404 0.9624555
 outer loop
  vertex -0.0028871885 -1.0387825 0.02069698
  vertex -0.0018936584 -1.0388796 0.020638121
  vertex -0.0016750403 -0.67236257 0.12333838
 endloop
endfacet
facet normal 0.045121435 -0.2696004 0.9619146
 outer loop
  vertex -0.0028871885 -1.0387825 0.02069698
  vertex -0.0016750403 -0.67236257 0.12333838
  vertex -0.0026740227 -0.67237425 0.123381965
 endloop
endfacet
facet normal 0.04512146 -0.26955304 0.96192783
 outer loop
  vertex -0.0026740227 -0.67237425 0.123381965
  vertex -0.0016750403 -0.67236257 0.12333838
  vertex -0.0014598009 -0.30589688 0.22601992
 endloop
endfacet
facet normal 0.06812222 -0.26927188 0.9606519
 outer loop
  vertex -0.0026740227 -0.67237425 0.123381965
  vertex -0.0014598009 -0.30589688 0.22601992
  vertex -0.0024574776 -0.30591473 0.22608566
 endloop
endfacet
facet normal 0.1674465 -0.98497987 -0.04214849
 outer loop
  vertex -0.9177012 -0.38750362 0.002817356
  vertex -0.91808563 -0.3875295 0.0018945488
  vertex -0.45735255 -0.3008887 -0.19244938
 endloop
endfacet
facet normal 0.15122609 -0.98521644 -0.08049359
 outer loop
  vertex -0.9177012 -0.38750362 0.002817356
  vertex -0.45735255 -0.3008887 -0.19244938
  vertex -0.45696154 -0.30090386 -0.19152911
 endloop
endfacet
facet normal 0.15130062 -0.98520243 -0.080525026
 outer loop
  vertex -0.45696154 -0.30090386 -0.19152911
  vertex -0.45735255 -0.3008887 -0.19244938
  vertex 0.0033808379 -0.21424788 -0.3867925
 endloop
endfacet
facet normal 0.13482481 -0.9837321 -0.11871499
 outer loop
  vertex -0.45696154 -0.30090386 -0.19152911
  vertex 0.0033808379 -0.21424788 -0.3867925
  vertex 0.0037778227 -0.21430403 -0.3858764
 endloop
endfacet
facet normal 0.16893907 0.98562646 0.00025033567
 outer loop
  vertex -0.41518956 0.40523103 0.0032766825
  vertex -0.41466224 0.40514043 0.0041214908
  vertex -0.20970598 0.3700438 -0.12757923
 endloop
endfacet
facet normal 0.16877988 0.98565376 -6.9911102e-06
 outer loop
  vertex -0.41518956 0.40523103 0.0032766825
  vertex -0.20970598 0.3700438 -0.12757923
  vertex -0.21023336 0.37013412 -0.12842403
 endloop
endfacet
facet normal 0.16877888 0.9856539 -6.325994e-06
 outer loop
  vertex -0.21023336 0.37013412 -0.12842403
  vertex -0.20970598 0.3700438 -0.12757923
  vertex -0.0047497237 0.3349472 -0.25927994
 endloop
endfacet
facet normal 0.16861941 0.9856811 -0.00026404284
 outer loop
  vertex -0.21023336 0.37013412 -0.12842403
  vertex -0.0047497237 0.3349472 -0.25927994
  vertex -0.005277168 0.3350372 -0.26012477
 endloop
endfacet
facet normal 0.5243747 0.084062435 0.84732795
 outer loop
  vertex 0.005096718 0.33449918 0.26311144
  vertex 0.39902008 0.40103918 0.012727896
  vertex 0.3989756 0.40203565 0.012656555
 endloop
endfacet
facet normal 0.52363247 0.08843518 0.8473419
 outer loop
  vertex 0.005096718 0.33449918 0.26311144
  vertex 0.3989756 0.40203565 0.012656555
  vertex 0.0049301735 0.33548522 0.26311144
 endloop
endfacet
facet normal 0.41312322 0.0655201 0.90831506
 outer loop
  vertex 0.39902008 0.40103918 0.012727896
  vertex 0.4209237 0.39791304 0.0029911026
  vertex 0.4213065 0.39880556 0.002752624
 endloop
endfacet
facet normal 0.41406474 0.083370626 0.9064214
 outer loop
  vertex 0.39902008 0.40103918 0.012727896
  vertex 0.4213065 0.39880556 0.002752624
  vertex 0.3989756 0.40203565 0.012656555
 endloop
endfacet
facet normal 0.19032133 0.20555632 0.9599606
 outer loop
  vertex 0.4209237 0.39791304 0.0029911026
  vertex 0.45041698 0.37050915 0.0030117745
  vertex 0.4511028 0.37118095 0.0027319526
 endloop
endfacet
facet normal 0.17198604 0.1847826 0.96761364
 outer loop
  vertex 0.4209237 0.39791304 0.0029911026
  vertex 0.4511028 0.37118095 0.0027319526
  vertex 0.4213065 0.39880556 0.002752624
 endloop
endfacet
facet normal 0.20949854 0.18654074 0.95985043
 outer loop
  vertex 0.45041698 0.37050915 0.0030117745
  vertex 0.5455251 0.26369599 0.0030117745
  vertex 0.5462866 0.2642806 0.0027319526
 endloop
endfacet
facet normal 0.20920768 0.18627794 0.95996493
 outer loop
  vertex 0.45041698 0.37050915 0.0030117745
  vertex 0.5462866 0.2642806 0.0027319526
  vertex 0.4511028 0.37118095 0.0027319526
 endloop
endfacet
facet normal 0.2337628 0.15381476 0.96005
 outer loop
  vertex 0.5455251 0.26369599 0.0030117745
  vertex 0.6880208 0.04713548 0.0030117745
  vertex 0.68882215 0.047664188 0.0027319526
 endloop
endfacet
facet normal 0.23433256 0.15419297 0.95985043
 outer loop
  vertex 0.5455251 0.26369599 0.0030117745
  vertex 0.68882215 0.047664188 0.0027319526
  vertex 0.5462866 0.2642806 0.0027319526
 endloop
endfacet
facet normal 0.2354095 0.15573038 0.95933855
 outer loop
  vertex 0.6880208 0.04713548 0.0030117745
  vertex 0.96109635 -0.36565852 0.0030117745
  vertex 0.9619618 -0.36524302 0.0027319526
 endloop
endfacet
facet normal 0.23338449 0.1543847 0.9600506
 outer loop
  vertex 0.6880208 0.04713548 0.0030117745
  vertex 0.9619618 -0.36524302 0.0027319526
  vertex 0.68882215 0.047664188 0.0027319526
 endloop
endfacet
facet normal 0.36955425 0.121910274 0.9211772
 outer loop
  vertex 0.96109635 -0.36565852 0.0030117745
  vertex 0.9667408 -0.38276887 0.0030117745
  vertex 0.96758753 -0.38322127 0.0027319526
 endloop
endfacet
facet normal 0.26964048 0.08437546 0.95925736
 outer loop
  vertex 0.96109635 -0.36565852 0.0030117745
  vertex 0.96758753 -0.38322127 0.0027319526
  vertex 0.9619618 -0.36524302 0.0027319526
 endloop
endfacet
facet normal 0.044439472 -0.17040253 0.98437196
 outer loop
  vertex 0.9667408 -0.38276887 0.0030117745
  vertex 0.9485691 -0.38782012 0.0029577224
  vertex 0.94859666 -0.3888049 0.0027860047
 endloop
endfacet
facet normal 0.11011536 -0.365573 0.9242462
 outer loop
  vertex 0.9667408 -0.38276887 0.0030117745
  vertex 0.94859666 -0.3888049 0.0027860047
  vertex 0.96758753 -0.38322127 0.0027319526
 endloop
endfacet
facet normal 0.34105197 -0.16903967 0.9247211
 outer loop
  vertex 0.9485691 -0.38782012 0.0029577224
  vertex 0.6986191 -0.34455943 0.10305136
  vertex 0.6984037 -0.345531 0.1029532
 endloop
endfacet
facet normal 0.34461078 -0.15189989 0.9263747
 outer loop
  vertex 0.9485691 -0.38782012 0.0029577224
  vertex 0.6984037 -0.345531 0.1029532
  vertex 0.94859666 -0.3888049 0.0027860047
 endloop
endfacet
facet normal 0.3663207 -0.17366017 0.9141396
 outer loop
  vertex 0.6986191 -0.34455943 0.10305136
  vertex 0.009787179 -0.21634999 0.4034412
  vertex 0.009565013 -0.21732032 0.40334588
 endloop
endfacet
facet normal 0.36633462 -0.17359895 0.91414577
 outer loop
  vertex 0.6986191 -0.34455943 0.10305136
  vertex 0.009565013 -0.21732032 0.40334588
  vertex 0.6984037 -0.345531 0.1029532
 endloop
endfacet
facet normal 0 -0 1
 outer loop
  vertex 0.5641966 -0.31211108 0.0028718635
  vertex 0.3002602 -0.6757703 0.0028718635
  vertex 0.3010695 -0.6763576 0.0028718635
 endloop
endfacet
facet normal 0 -0 1
 outer loop
  vertex 0.5641966 -0.31211108 0.0028718635
  vertex 0.3010695 -0.6763576 0.0028718635
  vertex 0.5650059 -0.31269845 0.0028718635
 endloop
endfacet
facet normal 0.00019755807 -0.00014304825 0.99999994
 outer loop
  vertex 0.3002602 -0.6757703 0.0028718635
  vertex 0.036349118 -1.0393974 0.002871985
  vertex 0.037107706 -1.040049 0.002871742
 endloop
endfacet
facet normal -1.5885348e-07 -2.1888307e-07 1
 outer loop
  vertex 0.3002602 -0.6757703 0.0028718635
  vertex 0.037107706 -1.040049 0.002871742
  vertex 0.3010695 -0.6763576 0.0028718635
 endloop
endfacet
facet normal 0.17927235 -0.1880172 0.96566606
 outer loop
  vertex 0.036349118 -1.0393974 0.002871985
  vertex 0.022951225 -1.0526544 0.0027780838
  vertex 0.023632066 -1.0533392 0.002518345
 endloop
endfacet
facet normal -0.012034567 -0.014383572 0.9998241
 outer loop
  vertex 0.036349118 -1.0393974 0.002871985
  vertex 0.023632066 -1.0533392 0.002518345
  vertex 0.037107706 -1.040049 0.002871742
 endloop
endfacet
facet normal 0.29693776 -0.30905855 0.9034992
 outer loop
  vertex 0.022951225 -1.0526544 0.0027780838
  vertex 0.009978029 -1.0658011 0.0025446736
  vertex 0.009731727 -1.06674 0.0023044562
 endloop
endfacet
facet normal 0.17268407 -0.19453277 0.9655761
 outer loop
  vertex 0.022951225 -1.0526544 0.0027780838
  vertex 0.009731727 -1.06674 0.0023044562
  vertex 0.023632066 -1.0533392 0.002518345
 endloop
endfacet
facet normal 0.26624653 -0.48744604 0.83157027
 outer loop
  vertex 0.009978029 -1.0658011 0.0025446736
  vertex 0.0065919473 -1.0523871 0.011491778
  vertex 0.0056533543 -1.0527146 0.011600337
 endloop
endfacet
facet normal 0.55730236 -0.34000757 0.7575017
 outer loop
  vertex 0.009978029 -1.0658011 0.0025446736
  vertex 0.0056533543 -1.0527146 0.011600337
  vertex 0.009731727 -1.06674 0.0023044562
 endloop
endfacet
facet normal 0.005589607 -0.5593422 0.828918
 outer loop
  vertex 0.0065919473 -1.0523871 0.011491778
  vertex 0.0028871885 -1.0387825 0.02069698
  vertex 0.0018936584 -1.0388796 0.020638121
 endloop
endfacet
facet normal 0.26325515 -0.4764525 0.8388621
 outer loop
  vertex 0.0065919473 -1.0523871 0.011491778
  vertex 0.0018936584 -1.0388796 0.020638121
  vertex 0.0056533543 -1.0527146 0.011600337
 endloop
endfacet
facet normal -0.045121435 -0.2696004 0.9619146
 outer loop
  vertex 0.0028871885 -1.0387825 0.02069698
  vertex 0.0026740227 -0.67237425 0.123381965
  vertex 0.0016750403 -0.67236257 0.12333838
 endloop
endfacet
facet normal -0.030649215 -0.269704 0.96245545
 outer loop
  vertex 0.0028871885 -1.0387825 0.02069698
  vertex 0.0016750403 -0.67236257 0.12333838
  vertex 0.0018936584 -1.0388796 0.020638121
 endloop
endfacet
facet normal -0.06812222 -0.2692719 0.9606519
 outer loop
  vertex 0.0026740227 -0.67237425 0.123381965
  vertex 0.0024574776 -0.30591473 0.22608566
  vertex 0.0014598009 -0.30589688 0.22601992
 endloop
endfacet
facet normal -0.045124803 -0.26955298 0.9619277
 outer loop
  vertex 0.0026740227 -0.67237425 0.123381965
  vertex 0.0014598009 -0.30589688 0.22601992
  vertex 0.0016750403 -0.67236257 0.12333838
 endloop
endfacet
facet normal -0.1512261 -0.98521644 -0.08049359
 outer loop
  vertex 0.9177012 -0.38750362 0.002817356
  vertex 0.45696154 -0.30090386 -0.19152911
  vertex 0.45735255 -0.3008887 -0.19244938
 endloop
endfacet
facet normal -0.16744329 -0.98498034 -0.04214801
 outer loop
  vertex 0.9177012 -0.38750362 0.002817356
  vertex 0.45735255 -0.3008887 -0.19244938
  vertex 0.91808563 -0.3875295 0.0018945488
 endloop
endfacet
facet normal -0.1348248 -0.9837321 -0.11871499
 outer loop
  vertex 0.45696154 -0.30090386 -0.19152911
  vertex -0.0037778227 -0.21430403 -0.3858764
  vertex -0.0033808379 -0.21424788 -0.3867925
 endloop
endfacet
facet normal -0.15129945 -0.9852026 -0.080525674
 outer loop
  vertex 0.45696154 -0.30090386 -0.19152911
  vertex -0.0033808379 -0.21424788 -0.3867925
  vertex 0.45735255 -0.3008887 -0.19244938
 endloop
endfacet
facet normal -0.16877988 0.98565376 -6.9911102e-06
 outer loop
  vertex 0.41518956 0.40523103 0.0032766825
  vertex 0.21023336 0.37013412 -0.12842403
  vertex 0.20970598 0.3700438 -0.12757923
 endloop
endfacet
facet normal -0.16893832 0.9856265 0.00025161874
 outer loop
  vertex 0.41518956 0.40523103 0.0032766825
  vertex 0.20970598 0.3700438 -0.12757923
  vertex 0.41466224 0.40514043 0.0041214908
 endloop
endfacet
facet normal -0.16861941 0.9856811 -0.00026403545
 outer loop
  vertex 0.21023336 0.37013412 -0.12842403
  vertex 0.005277168 0.3350372 -0.26012477
  vertex 0.0047497237 0.3349472 -0.25927994
 endloop
endfacet
facet normal -0.1687796 0.98565376 -7.567574e-06
 outer loop
  vertex 0.21023336 0.37013412 -0.12842403
  vertex 0.0047497237 0.3349472 -0.25927994
  vertex 0.20970598 0.3700438 -0.12757923
 endloop
endfacet
facet normal -0.5243747 0.084062435 -0.84732795
 outer loop
  vertex -0.005096718 0.33449918 -0.26311144
  vertex -0.39902008 0.40103918 -0.012727896
  vertex -0.3989756 0.40203565 -0.012656555
 endloop
endfacet
facet normal -0.52363247 0.08843518 -0.8473419
 outer loop
  vertex -0.005096718 0.33449918 -0.26311144
  vertex -0.3989756 0.40203565 -0.012656555
  vertex -0.0049301735 0.33548522 -0.26311144
 endloop
endfacet
facet normal -0.41312322 0.0655201 -0.90831506
 outer loop
  vertex -0.39902008 0.40103918 -0.012727896
  vertex -0.4209237 0.39791304 -0.0029911026
  vertex -0.4213065 0.39880556 -0.002752624
 endloop
endfacet
facet normal -0.41406474 0.083370626 -0.9064214
 outer loop
  vertex -0.39902008 0.40103918 -0.012727896
  vertex -0.4213065 0.39880556 -0.002752624
  vertex -0.3989756 0.40203565 -0.012656555
 endloop
endfacet
facet normal -0.19032133 0.20555632 -0.9599606
 outer loop
  vertex -0.4209237 0.39791304 -0.0029911026
  vertex -0.45041698 0.37050915 -0.0030117745
  vertex -0.4511028 0.37118095 -0.0027319526
 endloop
endfacet
facet normal -0.17198604 0.1847826 -0.96761364
 outer loop
  vertex -0.4209237 0.39791304 -0.0029911026
  vertex -0.4511028 0.37118095 -0.0027319526
  vertex -0.4213065 0.39880556 -0.002752624
 endloop
endfacet
facet normal -0.20949854 0.18654074 -0.95985043
 outer loop
  vertex -0.45041698 0.37050915 -0.0030117745
  vertex -0.5455251 0.26369599 -0.0030117745
  vertex -0.5462866 0.2642806 -0.0027319526
 endloop
endfacet
facet normal -0.20920768 0.18627794 -0.95996493
 outer loop
  vertex -0.45041698 0.37050915 -0.0030117745
  vertex -0.5462866 0.2642806 -0.0027319526
  vertex -0.4511028 0.37118095 -0.0027319526
 endloop
endfacet
facet normal -0.2337628 0.15381476 -0.96005
 outer loop
  vertex -0.5455251 0.26369599 -0.0030117745
  vertex -0.6880208 0.04713548 -0.0030117745
  vertex -0.68882215 0.047664188 -0.0027319526
 endloop
endfacet
facet normal -0.23433256 0.15419297 -0.95985043
 outer loop
  vertex -0.5455251 0.26369599 -0.0030117745
  vertex -0.68882215 0.047664188 -0.0027319526
  vertex -0.5462866 0.2642806 -0.0027319526
 endloop
endfacet
facet normal -0.2354095 0.15573038 -0.95933855
 outer loop
  vertex -0.6880208 0.04713548 -0.0030117745
  vertex -0.96109635 -0.36565852 -0.0030117745
  vertex -0.9619618 -0.36524302 -0.0027319526
 endloop
endfacet
facet normal -0.23338449 0.1543847 -0.9600506
 outer loop
  vertex -0.6880208 0.04713548 -0.0030117745
  vertex -0.9619618 -0.36524302 -0.0027319526
  vertex -0.68882215 0.047664188 -0.0027319526
 endloop
endfacet
facet normal -0.36955425 0.121910274 -0.9211772
 outer loop
  vertex -0.96109635 -0.36565852 -0.0030117745
  vertex -0.9667408 -0.38276887 -0.0030117745
  vertex -0.96758753 -0.38322127 -0.0027319526
 endloop
endfacet
facet normal -0.26964048 0.08437546 -0.95925736
 outer loop
  vertex -0.96109635 -0.36565852 -0.0030117745
  vertex -0.96758753 -0.38322127 -0.0027319526
  vertex -0.9619618 -0.36524302 -0.0027319526
 endloop
endfacet
facet normal -0.044439472 -0.17040253 -0.98437196
 outer loop
  vertex -0.9667408 -0.38276887 -0.0030117745
  vertex -0.9485691 -0.38782012 -0.0029577224
  vertex -0.94859666 -0.3888049 -0.0027860047
 endloop
endfacet
facet normal -0.11011536 -0.365573 -0.9242462
 outer loop
  vertex -0.9667408 -0.38276887 -0.0030117745
  vertex -0.94859666 -0.3888049 -0.0027860047
  vertex -0.96758753 -0.38322127 -0.0027319526
 endloop
endfacet
facet normal -0.34105197 -0.16903967 -0.9247211
 outer loop
  vertex -0.9485691 -0.38782012 -0.0029577224
  vertex -0.6986191 -0.34455943 -0.10305136
  vertex -0.6984037 -0.345531 -0.1029532
 endloop
endfacet
facet normal -0.34461078 -0.15189989 -0.9263747
 outer loop
  vertex -0.9485691 -0.38782012 -0.0029577224
  vertex -0.6984037 -0.345531 -0.1029532
  vertex -0.94859666 -0.3888049 -0.0027860047
 endloop
endfacet
facet normal -0.3663207 -0.17366017 -0.9141396
 outer loop
  vertex -0.6986191 -0.34455943 -0.10305136
  vertex -0.009787179 -0.21634999 -0.4034412
  vertex -0.009565013 -0.21732032 -0.40334588
 endloop
endfacet
facet normal -0.36633462 -0.17359895 -0.91414577
 outer loop
  vertex -0.6986191 -0.34455943 -0.10305136
  vertex -0.009565013 -0.21732032 -0.40334588
  vertex -0.6984037 -0.345531 -0.1029532
 endloop
endfacet
facet normal 0 0 -1
 outer loop
  vertex -0.5641966 -0.31211108 -0.0028718635
  vertex -0.3002602 -0.6757703 -0.0028718635
  vertex -0.3010695 -0.6763576 -0.0028718635
 endloop
endfacet
facet normal 0 0 -1
 outer loop
  vertex -0.5641966 -0.31211108 -0.0028718635
  vertex -0.3010695 -0.6763576 -0.0028718635
  vertex -0.5650059 -0.31269845 -0.0028718635
 endloop
endfacet
facet normal -0.00019755807 -0.00014304825 -0.99999994
 outer loop
  vertex -0.3002602 -0.6757703 -0.0028718635
  vertex -0.036349118 -1.0393974 -0.002871985
  vertex -0.037107706 -1.040049 -0.002871742
 endloop
endfacet
facet normal 1.5885348e-07 -2.1888307e-07 -1
 outer loop
  vertex -0.3002602 -0.6757703 -0.0028718635
  vertex -0.037107706 -1.040049 -0.002871742
  vertex -0.3010695 -0.6763576 -0.0028718635
 endloop
endfacet
facet normal -0.17927235 -0.1880172 -0.96566606
 outer loop
  vertex -0.036349118 -1.0393974 -0.002871985
  vertex -0.022951225 -1.0526544 -0.0027780838
  vertex -0.023632066 -1.0533392 -0.002518345
 endloop
endfacet
facet normal 0.012034567 -0.014383572 -0.9998241
 outer loop
  vertex -0.036349118 -1.0393974 -0.002871985
  vertex -0.023632066 -1.0533392 -0.002518345
  vertex -0.037107706 -1.040049 -0.002871742
 endloop
endfacet
facet normal -0.29693776 -0.30905855 -0.9034992
 outer loop
  vertex -0.022951225 -1.0526544 -0.0027780838
  vertex -0.009978029 -1.0658011 -0.0025446736
  vertex -0.009731727 -1.06674 -0.0023044562
 endloop
endfacet
facet normal -0.17268407 -0.19453277 -0.9655761
 outer loop
  vertex -0.022951225 -1.0526544 -0.0027780838
  vertex -0.009731727 -1.06674 -0.0023044562
  vertex -0.023632066 -1.0533392 -0.002518345
 endloop
endfacet
facet normal -0.26624653 -0.48744604 -0.83157027
 outer loop
  vertex -0.009978029 -1.0658011 -0.0025446736
  vertex -0.0065919473 -1.0523871 -0.011491778
  vertex -0.0056533543 -1.0527146 -0.011600337
 endloop
endfacet
facet normal -0.55730236 -0.34000757 -0.7575017
 outer loop
  vertex -0.009978029 -1.0658011 -0.0025446736
  vertex -0.0056533543 -1.0527146 -0.011600337
  vertex -0.009731727 -1.06674 -0.0023044562
 endloop
endfacet
facet normal -0.005589607 -0.5593422 -0.828918
 outer loop
  vertex -0.0065919473 -1.0523871 -0.011491778
  vertex -0.0028871885 -1.0387825 -0.02069698
  vertex -0.0018936584 -1.0388796 -0.020638121
 endloop
endfacet
facet normal -0.26325515 -0.4764525 -0.8388621
 outer loop
  vertex -0.0065919473 -1.0523871 -0.011491778
  vertex -0.0018936584 -1.0388796 -0.020638121
  vertex -0.0056533543 -1.0527146 -0.011600337
 endloop
endfacet
facet normal 0.045121435 -0.2696004 -0.9619146
 outer loop
  vertex -0.0028871885 -1.0387825 -0.02069698
  vertex -0.0026740227 -0.67237425 -0.123381965
  vertex -0.0016750403 -0.67236257 -0.12333838
 endloop
endfacet
facet normal 0.030649215 -0.269704 -0.96245545
 outer loop
  vertex -0.0028871885 -1.0387825 -0.02069698
  vertex -0.0016750403 -0.67236257 -0.12333838
  vertex -0.0018936584 -1.0388796 -0.020638121
 endloop
endfacet
facet normal 0.06812222 -0.2692719 -0.9606519
 outer loop
  vertex -0.0026740227 -0.67237425 -0.123381965
  vertex -0.0024574776 -0.30591473 -0.22608566
  vertex -0.0014598009 -0.30589688 -0.22601992
 endloop
endfacet
facet normal 0.045124803 -0.26955298 -0.9619277
 outer loop
  vertex -0.0026740227 -0.67237425 -0.123381965
  vertex -0.0014598009 -0.30589688 -0.22601992
  vertex -0.0016750403 -0.67236257 -0.12333838
 endloop
endfacet
facet normal 0.1512261 -0.98521644 0.08049359
 outer loop
  vertex -0.9177012 -0.38750362 -0.002817356
  vertex -0.45696154 -0.30090386 0.19152911
  vertex -0.45735255 -0.3008887 0.19244938
 endloop
endfacet
facet normal 0.16744329 -0.98498034 0.04214801
 outer loop
  vertex -0.9177012 -0.38750362 -0.002817356
  vertex -0.45735255 -0.3008887 0.19244938
  vertex -0.91808563 -0.3875295 -0.0018945488
 endloop
endfacet
facet normal 0.1348248 -0.9837321 0.11871499
 outer loop
  vertex -0.45696154 -0.30090386 0.19152911
  vertex 0.0037778227 -0.21430403 0.3858764
  vertex 0.0033808379 -0.21424788 0.3867925
 endloop
endfacet
facet normal 0.15129945 -0.9852026 0.080525674
 outer loop
  vertex -0.45696154 -0.30090386 0.19152911
  vertex 0.0033808379 -0.21424788 0.3867925
  vertex -0.45735255 -0.3008887 0.19244938
 endloop
endfacet
facet normal 0.16877988 0.98565376 6.9911102e-06
 outer loop
  vertex -0.41518956 0.40523103 -0.0032766825
  vertex -0.21023336 0.37013412 0.12842403
  vertex -0.20970598 0.3700438 0.12757923
 endloop
endfacet
facet normal 0.16893832 0.9856265 -0.00025161874
 outer loop
  vertex -0.41518956 0.40523103 -0.0032766825
  vertex -0.20970598 0.3700438 0.12757923
  vertex -0.41466224 0.40514043 -0.0041214908
 endloop
endfacet
facet normal 0.16861941 0.9856811 0.00026403545
 outer loop
  vertex -0.21023336 0.37013412 0.12842403
  vertex -0.005277168 0.3350372 0.26012477
  vertex -0.0047497237 0.3349472 0.25927994
 endloop
endfacet
facet normal 0.1687796 0.98565376 7.567574e-06
 outer loop
  vertex -0.21023336 0.37013412 0.12842403
  vertex -0.0047497237 0.3349472 0.25927994
  vertex -0.20970598 0.3700438 0.12757923
 endloop
endfacet
facet normal 0.52363217 0.088442855 -0.8473413
 outer loop
  vertex 0.005096718 0.33449918 -0.26311144
  vertex 0.0049301735 0.33548522 -0.26311144
  vertex 0.3989756 0.40203565 -0.012656555
 endloop
endfacet
facet normal 0.5243747 0.08406243 -0.84732795
 outer loop
  vertex 0.005096718 0.33449918 -0.26311144
  vertex 0.3989756 0.40203565 -0.012656555
  vertex 0.39902008 0.40103918 -0.012727896
 endloop
endfacet
facet normal 0.41406468 0.083370835 -0.90642136
 outer loop
  vertex 0.39902008 0.40103918 -0.012727896
  vertex 0.3989756 0.40203565 -0.012656555
  vertex 0.4213065 0.39880556 -0.002752624
 endloop
endfacet
facet normal 0.4131233 0.06552011 -0.9083151
 outer loop
  vertex 0.39902008 0.40103918 -0.012727896
  vertex 0.4213065 0.39880556 -0.002752624
  vertex 0.4209237 0.39791304 -0.0029911026
 endloop
endfacet
facet normal 0.17198607 0.18478262 -0.96761364
 outer loop
  vertex 0.4209237 0.39791304 -0.0029911026
  vertex 0.4213065 0.39880556 -0.002752624
  vertex 0.4511028 0.37118095 -0.0027319526
 endloop
endfacet
facet normal 0.19032133 0.20555632 -0.9599606
 outer loop
  vertex 0.4209237 0.39791304 -0.0029911026
  vertex 0.4511028 0.37118095 -0.0027319526
  vertex 0.45041698 0.37050915 -0.0030117745
 endloop
endfacet
facet normal 0.20920773 0.18627797 -0.95996493
 outer loop
  vertex 0.45041698 0.37050915 -0.0030117745
  vertex 0.4511028 0.37118095 -0.0027319526
  vertex 0.5462866 0.2642806 -0.0027319526
 endloop
endfacet
facet normal 0.20949857 0.18654075 -0.95985043
 outer loop
  vertex 0.45041698 0.37050915 -0.0030117745
  vertex 0.5462866 0.2642806 -0.0027319526
  vertex 0.5455251 0.26369599 -0.0030117745
 endloop
endfacet
facet normal 0.23433195 0.15419257 -0.95985055
 outer loop
  vertex 0.5455251 0.26369599 -0.0030117745
  vertex 0.5462866 0.2642806 -0.0027319526
  vertex 0.68882215 0.047664188 -0.0027319526
 endloop
endfacet
facet normal 0.2337628 0.15381478 -0.96005
 outer loop
  vertex 0.5455251 0.26369599 -0.0030117745
  vertex 0.68882215 0.047664188 -0.0027319526
  vertex 0.6880208 0.04713548 -0.0030117745
 endloop
endfacet
facet normal 0.23338604 0.15438575 -0.9600499
 outer loop
  vertex 0.6880208 0.04713548 -0.0030117745
  vertex 0.68882215 0.047664188 -0.0027319526
  vertex 0.9619618 -0.36524302 -0.0027319526
 endloop
endfacet
facet normal 0.2354095 0.1557304 -0.9593386
 outer loop
  vertex 0.6880208 0.04713548 -0.0030117745
  vertex 0.9619618 -0.36524302 -0.0027319526
  vertex 0.96109635 -0.36565852 -0.0030117745
 endloop
endfacet
facet normal 0.26964048 0.08437546 -0.95925736
 outer loop
  vertex 0.96109635 -0.36565852 -0.0030117745
  vertex 0.9619618 -0.36524302 -0.0027319526
  vertex 0.96758753 -0.38322127 -0.0027319526
 endloop
endfacet
facet normal 0.36955425 0.121910274 -0.92117727
 outer loop
  vertex 0.96109635 -0.36565852 -0.0030117745
  vertex 0.96758753 -0.38322127 -0.0027319526
  vertex 0.9667408 -0.38276887 -0.0030117745
 endloop
endfacet
facet normal 0.11011533 -0.36557293 -0.9242462
 outer loop
  vertex 0.9667408 -0.38276887 -0.0030117745
  vertex 0.96758753 -0.38322127 -0.0027319526
  vertex 0.94859666 -0.3888049 -0.0027860047
 endloop
endfacet
facet normal 0.044439472 -0.17040253 -0.98437196
 outer loop
  vertex 0.9667408 -0.38276887 -0.0030117745
  vertex 0.94859666 -0.3888049 -0.0027860047
  vertex 0.9485691 -0.38782012 -0.0029577224
 endloop
endfacet
facet normal 0.3446111 -0.151896 -0.9263751
 outer loop
  vertex 0.9485691 -0.38782012 -0.0029577224
  vertex 0.94859666 -0.3888049 -0.0027860047
  vertex 0.6984037 -0.345531 -0.1029532
 endloop
endfacet
facet normal 0.34105194 -0.16903965 -0.9247211
 outer loop
  vertex 0.9485691 -0.38782012 -0.0029577224
  vertex 0.6984037 -0.345531 -0.1029532
  vertex 0.6986191 -0.34455943 -0.10305136
 endloop
endfacet
facet normal 0.36633936 -0.17357811 -0.91414773
 outer loop
  vertex 0.6986191 -0.34455943 -0.10305136
  vertex 0.6984037 -0.345531 -0.1029532
  vertex 0.009565013 -0.21732032 -0.40334588
 endloop
endfacet
facet normal 0.36632064 -0.17366017 -0.9141397
 outer loop
  vertex 0.6986191 -0.34455943 -0.10305136
  vertex 0.009565013 -0.21732032 -0.40334588
  vertex 0.009787179 -0.21634999 -0.4034412
 endloop
endfacet
facet normal 0 0 -1
 outer loop
  vertex 0.5641966 -0.31211108 -0.0028718635
  vertex 0.5650059 -0.31269845 -0.0028718635
  vertex 0.3010695 -0.6763576 -0.0028718635
 endloop
endfacet
facet normal 0 0 -1
 outer loop
  vertex 0.5641966 -0.31211108 -0.0028718635
  vertex 0.3010695 -0.6763576 -0.0028718635
  vertex 0.3002602 -0.6757703 -0.0028718635
 endloop
endfacet
facet normal -1.5885223e-07 -2.1888528e-07 -1
 outer loop
  vertex 0.3002602 -0.6757703 -0.0028718635
  vertex 0.3010695 -0.6763576 -0.0028718635
  vertex 0.037107706 -1.040049 -0.002871742
 endloop
endfacet
facet normal 0.00019755804 -0.00014304825 -0.99999994
 outer loop
  vertex 0.3002602 -0.6757703 -0.0028718635
  vertex 0.037107706 -1.040049 -0.002871742
  vertex 0.036349118 -1.0393974 -0.002871985
 endloop
endfacet
facet normal -0.012034549 -0.014383565 -0.9998241
 outer loop
  vertex 0.036349118 -1.0393974 -0.002871985
  vertex 0.037107706 -1.040049 -0.002871742
  vertex 0.023632066 -1.0533392 -0.002518345
 endloop
endfacet
facet normal 0.17927235 -0.1880172 -0.96566606
 outer loop
  vertex 0.036349118 -1.0393974 -0.002871985
  vertex 0.023632066 -1.0533392 -0.002518345
  vertex 0.022951225 -1.0526544 -0.0027780838
 endloop
endfacet
facet normal 0.17268406 -0.19453274 -0.9655761
 outer loop
  vertex 0.022951225 -1.0526544 -0.0027780838
  vertex 0.023632066 -1.0533392 -0.002518345
  vertex 0.009731727 -1.06674 -0.0023044562
 endloop
endfacet
facet normal 0.29693776 -0.30905852 -0.9034992
 outer loop
  vertex 0.022951225 -1.0526544 -0.0027780838
  vertex 0.009731727 -1.06674 -0.0023044562
  vertex 0.009978029 -1.0658011 -0.0025446736
 endloop
endfacet
facet normal 0.55730325 -0.3400071 -0.75750136
 outer loop
  vertex 0.009978029 -1.0658011 -0.0025446736
  vertex 0.009731727 -1.06674 -0.0023044562
  vertex 0.0056533543 -1.0527146 -0.011600337
 endloop
endfacet
facet normal 0.26624653 -0.48744598 -0.83157027
 outer loop
  vertex 0.009978029 -1.0658011 -0.0025446736
  vertex 0.0056533543 -1.0527146 -0.011600337
  vertex 0.0065919473 -1.0523871 -0.011491778
 endloop
endfacet
facet normal 0.26325443 -0.47645265 -0.83886236
 outer loop
  vertex 0.0065919473 -1.0523871 -0.011491778
  vertex 0.0056533543 -1.0527146 -0.011600337
  vertex 0.0018936584 -1.0388796 -0.020638121
 endloop
endfacet
facet normal 0.005589604 -0.5593422 -0.828918
 outer loop
  vertex 0.0065919473 -1.0523871 -0.011491778
  vertex 0.0018936584 -1.0388796 -0.020638121
  vertex 0.0028871885 -1.0387825 -0.02069698
 endloop
endfacet
facet normal -0.030644758 -0.26970404 -0.9624555
 outer loop
  vertex 0.0028871885 -1.0387825 -0.02069698
  vertex 0.0018936584 -1.0388796 -0.020638121
  vertex 0.0016750403 -0.67236257 -0.12333838
 endloop
endfacet
facet normal -0.045121435 -0.2696004 -0.9619146
 outer loop
  vertex 0.0028871885 -1.0387825 -0.02069698
  vertex 0.0016750403 -0.67236257 -0.12333838
  vertex 0.0026740227 -0.67237425 -0.123381965
 endloop
endfacet
facet normal -0.04512146 -0.26955304 -0.96192783
 outer loop
  vertex 0.0026740227 -0.67237425 -0.123381965
  vertex 0.0016750403 -0.67236257 -0.12333838
  vertex 0.0014598009 -0.30589688 -0.22601992
 endloop
endfacet
facet normal -0.06812222 -0.26927188 -0.9606519
 outer loop
  vertex 0.0026740227 -0.67237425 -0.123381965
  vertex 0.0014598009 -0.30589688 -0.22601992
  vertex 0.0024574776 -0.30591473 -0.22608566
 endloop
endfacet
facet normal -0.1674465 -0.98497987 0.04214849
 outer loop
  vertex 0.9177012 -0.38750362 -0.002817356
  vertex 0.91808563 -0.3875295 -0.0018945488
  vertex 0.45735255 -0.3008887 0.19244938
 endloop
endfacet
facet normal -0.15122609 -0.98521644 0.08049359
 outer loop
  vertex 0.9177012 -0.38750362 -0.002817356
  vertex 0.45735255 -0.3008887 0.19244938
  vertex 0.45696154 -0.30090386 0.19152911
 endloop
endfacet
facet normal -0.15130062 -0.98520243 0.080525026
 outer loop
  vertex 0.45696154 -0.30090386 0.19152911
  vertex 0.45735255 -0.3008887 0.19244938
  vertex -0.0033808379 -0.21424788 0.3867925
 endloop
endfacet
facet normal -0.13482481 -0.9837321 0.11871499
 outer loop
  vertex 0.45696154 -0.30090386 0.19152911
  vertex -0.0033808379 -0.21424788 0.3867925
  vertex -0.0037778227 -0.21430403 0.3858764
 endloop
endfacet
facet normal -0.16893907 0.98562646 -0.00025033567
 outer loop
  vertex 0.41518956 0.40523103 -0.0032766825
  vertex 0.41466224 0.40514043 -0.0041214908
  vertex 0.20970598 0.3700438 0.12757923
 endloop
endfacet
facet normal -0.16877988 0.98565376 6.9911102e-06
 outer loop
  vertex 0.41518956 0.40523103 -0.0032766825
  vertex 0.20970598 0.3700438 0.12757923
  vertex 0.21023336 0.37013412 0.12842403
 endloop
endfacet
facet normal -0.16877888 0.9856539 6.325994e-06
 outer loop
  vertex 0.21023336 0.37013412 0.12842403
  vertex 0.20970598 0.3700438 0.12757923
  vertex 0.0047497237 0.3349472 0.25927994
 endloop
endfacet
facet normal -0.16861941 0.9856811 0.00026404284
 outer loop
  vertex 0.21023336 0.37013412 0.12842403
  vertex 0.0047497237 0.3349472 0.25927994
  vertex 0.005277168 0.3350372 0.26012477
 endloop
endfacet
endsolid 
